<?xml version="1.0" encoding="UTF-8" standalone="no"?>
<svg
   height="32"
   viewBox="0 0 32 32"
   width="32"
   version="1.1"
   id="svg2"
   sodipodi:docname="dark_link.svg"
   xml:space="preserve"
   inkscape:version="1.4.2 (ebf0e940, 2025-05-08)"
   inkscape:export-filename="raster/dark_link.png"
   inkscape:export-xdpi="96"
   inkscape:export-ydpi="96"
   xmlns:inkscape="http://www.inkscape.org/namespaces/inkscape"
   xmlns:sodipodi="http://sodipodi.sourceforge.net/DTD/sodipodi-0.dtd"
   xmlns="http://www.w3.org/2000/svg"
   xmlns:svg="http://www.w3.org/2000/svg"><defs
     id="defs2" /><sodipodi:namedview
     id="namedview2"
     pagecolor="#505050"
     bordercolor="#eeeeee"
     borderopacity="1"
     inkscape:showpageshadow="0"
     inkscape:pageopacity="0"
     inkscape:pagecheckerboard="0"
     inkscape:deskcolor="#505050"
     inkscape:zoom="13.009576"
     inkscape:cx="11.991167"
     inkscape:cy="17.02592"
     inkscape:window-width="1472"
     inkscape:window-height="794"
     inkscape:window-x="0"
     inkscape:window-y="33"
     inkscape:window-maximized="1"
     inkscape:current-layer="svg2" /><path
     fill="#ffffff"
     stroke="#000000"
     stroke-width="0.52835"
     stroke-linejoin="round"
     d="m 11.887661,13.829144 v -1.311976 c 0,-0.574398 0.252327,-1.070469 0.61585,-1.214069 h 0.02138 a 0.85107097,1.298922 0 0 1 1.073462,1.253232 v 1.925539 -1.305451 c 0,-0.574396 0.256605,-1.076995 0.624403,-1.220593 h 0.02139 a 0.84679425,1.2923948 0 0 1 1.064908,1.259756 v 1.919012 -1.266287 a 0.85534762,1.3054491 0 0 1 0.645788,-1.266284 v 0 a 0.85534762,1.3054491 0 0 1 1.064908,1.266284 v 1.919011 c 0,0.391635 -0.03422,0.82896 -0.08981,1.285867 a 3.4042837,5.1956879 0 0 1 -3.228937,4.229656 23.513508,35.886799 0 0 1 -1.915979,0 3.4042837,5.1956879 0 0 1 -3.2289406,-4.229656 c -0.0556,-0.456907 -0.08981,-0.90076 -0.08981,-1.285867 v -0.97256 c 0,-0.724525 0.384907,-1.311976 0.859625,-1.311976 v 0 a 0.85534762,1.3054491 0 0 1 0.8596246,1.325032 l -0.0043,0.633141 V 8.9337095 c 0,-0.717997 0.384906,-1.3054489 0.855348,-1.3054489 v 0 a 0.85534762,1.3054491 0 0 1 0.855348,1.3054489 v 4.8954345 z"
     id="path1"
     style="fill:#efefef;fill-opacity:1;stroke:#ffffff;stroke-opacity:1" /></svg>
