<?xml version="1.0" encoding="UTF-8" standalone="no"?>
<svg
   height="32"
   viewBox="0 0 32 32"
   width="32"
   version="1.1"
   id="svg2"
   sodipodi:docname="light_text.svg"
   xml:space="preserve"
   inkscape:version="1.4.2 (ebf0e940, 2025-05-08)"
   inkscape:export-filename="raster/light_text.png"
   inkscape:export-xdpi="96"
   inkscape:export-ydpi="96"
   xmlns:inkscape="http://www.inkscape.org/namespaces/inkscape"
   xmlns:sodipodi="http://sodipodi.sourceforge.net/DTD/sodipodi-0.dtd"
   xmlns="http://www.w3.org/2000/svg"
   xmlns:svg="http://www.w3.org/2000/svg"><defs
     id="defs2" /><sodipodi:namedview
     id="namedview2"
     pagecolor="#505050"
     bordercolor="#eeeeee"
     borderopacity="1"
     inkscape:showpageshadow="0"
     inkscape:pageopacity="0"
     inkscape:pagecheckerboard="0"
     inkscape:deskcolor="#505050"
     inkscape:zoom="38.889835"
     inkscape:cx="11.725429"
     inkscape:cy="13.898233"
     inkscape:window-width="1472"
     inkscape:window-height="794"
     inkscape:window-x="0"
     inkscape:window-y="33"
     inkscape:window-maximized="1"
     inkscape:current-layer="svg2" /><path
     d="m 12.569677,7.4629768 c 0.250187,-0.019846 0.518369,-0.010702 0.713549,0.00749 l 0.05683,1.3493318 c -0.30094,-0.017762 -0.499185,-0.024387 -0.671899,-0.012299 -0.330562,0.084102 -0.481821,0.1779483 -0.655602,0.3188166 -0.119469,0.096135 -0.315121,0.4083964 -0.397701,0.6236314 v 6.8134464 c 0.08254,0.214935 0.278234,0.52656 0.400252,0.624378 0.162793,0.132509 0.304698,0.227601 0.430339,0.278003 0.535092,0.07536 0.497673,0.02966 0.802404,0.04105 l 0.139517,1.333729 c -0.369003,0.02133 -0.600354,0.02574 -0.818116,0.0083 -0.180248,-0.01446 -0.331294,-0.0434 -0.447203,-0.08716 -0.24083,-0.08746 -0.492575,-0.243179 -0.764323,-0.464396 -0.09736,-0.07804 -0.206317,-0.19605 -0.313632,-0.33603 -0.09845,0.136122 -0.196176,0.251287 -0.279584,0.32753 -0.233442,0.211723 -0.500509,0.36709 -0.7855622,0.47156 -0.122274,0.04601 -0.272981,0.07476 -0.452682,0.0892 -0.25103,0.02016 -0.519983,0.01099 -0.715304,-0.0073 l -0.056,-1.349293 c 0.2991,0.01776 0.497828,0.02445 0.670812,0.01224 0.357432,-0.09409 0.506552,-0.169972 0.6281592,-0.280258 0.113888,-0.10411 0.337724,-0.458862 0.405405,-0.663652 l 0.0081,-6.8069254 C 10.391182,9.5472836 10.169032,9.1918536 10.056527,9.0894725 9.9402138,8.9843859 9.8030268,8.9048524 9.6511468,8.8458942 9.1151508,8.7709866 9.1523578,8.8163615 8.8475898,8.8051824 l -0.1404,-1.3338027 c 0.370086,-0.021317 0.601192,-0.025706 0.818653,-0.00843 0.179489,0.014262 0.329994,0.042761 0.450402,0.087738 0.2889642,0.1069051 0.5547802,0.2616153 0.7889972,0.4732324 0.08285,0.07539 0.18056,0.1904831 0.279199,0.3268452 0.106603,-0.1393005 0.214618,-0.256611 0.310775,-0.3339846 0.274239,-0.2223084 0.524717,-0.3775312 0.762016,-0.465318 0.122095,-0.045713 0.272715,-0.074233 0.452445,-0.08849 z"
     fill-rule="evenodd"
     stroke="#ffffff"
     stroke-linejoin="round"
     id="path1-9"
     style="stroke-width:0.624276;fill:#000000;fill-opacity:1;stroke:#242424;stroke-opacity:1"
     sodipodi:nodetypes="cccccccccccccccccccccccccccccccccccc" /></svg>
